# Blender 4.3.2
# www.blender.org
mtllib target circle.mtl
o Circle_Circle.001
v 0.094164 2.294062 -0.069334
v 0.469642 2.183567 -0.050150
v 0.819152 1.874021 0.003595
v 0.959824 1.600191 0.051138
v 0.999902 1.216123 0.117822
v 0.894495 0.862269 0.179260
v 0.747738 0.656268 0.213997
v 0.477222 0.438223 0.252885
v 0.216440 0.346994 0.268725
v -0.094164 0.323736 0.272764
v -0.469642 0.434231 0.253579
v -0.805825 0.725156 0.203031
v -0.915312 0.912090 0.170611
v -0.999059 1.207697 0.119287
v -0.887754 1.771619 0.021376
v -0.640453 2.071117 -0.030625
v -0.219983 2.270217 -0.065201
v 0.253502 2.300594 0.132526
v 0.537300 2.174072 0.154491
v 0.691513 2.054828 0.175194
v 0.761411 1.980350 0.188362
v 0.948865 1.667387 0.242457
v 0.999762 1.364605 0.295034
v 0.971806 1.093348 0.342151
v 0.722364 0.661792 0.417060
v 0.573577 0.536035 0.438895
v 0.329128 0.408234 0.461088
v -0.059041 0.355302 0.470275
v -0.438221 0.452757 0.453365
v -0.691513 0.631396 0.422339
v -0.819152 0.777991 0.396886
v -0.915312 0.946303 0.367663
v -0.994843 1.207455 0.322330
v -0.984807 1.514202 0.269062
v -0.843391 1.872493 0.206853
v -0.667188 2.082733 0.170349
v -0.402745 2.244932 0.142188
v -0.128235 2.323148 0.128665
v 0.681723 1.955423 0.192640
v 0.723491 1.985759 -0.015833
v -0.943377 1.668755 0.242211
v -0.913090 1.490537 0.273330
v -0.980293 1.489645 0.070311
v -0.958063 1.543725 0.263951
v 0.793469 0.741270 0.403389
v 0.625738 0.841821 0.385483
v 0.736867 0.741785 0.402899
v 0.673550 0.695758 0.411037
v 0.767749 0.684557 0.210115
v -0.303403 2.230674 0.144755
v -0.319201 2.259757 0.139721
v -0.363039 2.223431 -0.057402
v -0.755333 0.704694 0.409612
v -0.684326 0.681105 0.413051
v -0.752126 0.786278 0.395387
v -0.707720 0.617400 0.221678
v -0.771288 0.688805 0.209379
v 0.056776 1.520980 0.267654
v 0.366442 1.324738 0.302000
v 0.360748 1.227155 0.318941
v 0.415635 1.180656 0.326655
v 0.424856 1.355179 0.296712
v 0.361092 1.220063 0.266631
v -0.071862 0.925906 0.371239
v -0.035898 0.987464 0.359131
v -0.039471 1.028316 0.352553
v -0.035440 1.011672 0.322235
vn -0.0000 -0.1711 -0.9853
vn 0.0004 -0.1707 -0.9853
vn -0.0061 -0.1641 -0.9864
vn 0.3173 0.9420 -0.1092
vn 0.9000 0.3419 0.2703
vn -0.3143 0.9436 -0.1040
vn -0.3170 0.9425 -0.1054
vn -0.2317 0.9610 -0.1510
vn -0.0002 0.1709 0.9853
vn -0.0002 0.1708 0.9853
vn -0.0002 0.1707 0.9853
vn -0.0004 0.1687 0.9857
vn 0.0007 0.1695 0.9855
vn -0.0010 0.1716 0.9852
vn -0.9988 0.0482 -0.0037
vn -0.9952 -0.0974 0.0131
vn -0.9909 -0.1334 0.0172
vn 0.9983 -0.0558 0.0141
vn 0.6513 0.7525 -0.0977
vn -0.7838 0.5236 0.3338
vn -0.7602 -0.5979 0.2543
vn -0.6764 0.1591 0.7191
vn 0.2502 -0.3214 0.9133
vn 0.9333 -0.2477 0.2601
vn 0.0001 -0.1713 -0.9852
vn -0.0002 -0.1709 -0.9853
vn 0.0003 -0.1717 -0.9852
vn 0.0072 -0.1859 -0.9825
vn 0.0001 -0.1710 -0.9853
vn -0.0002 -0.1711 -0.9852
vn 0.0032 -0.1690 -0.9856
vn 0.0046 -0.1657 -0.9862
vn -0.0007 -0.1703 -0.9854
vn -0.0766 -0.0822 -0.9937
vn -0.0000 -0.1709 -0.9853
vn 0.0001 -0.1709 -0.9853
vn 0.0007 -0.1707 -0.9853
vn 0.5665 0.8227 0.0484
vn 0.4926 -0.8590 0.1394
vn 0.3011 -0.9393 0.1643
vn 0.1861 -0.9691 0.1622
vn 0.0932 0.9816 -0.1664
vn 0.2526 0.9525 -0.1703
vn 0.4673 0.8692 -0.1620
vn 0.7643 0.6326 -0.1252
vn 0.8371 0.5403 -0.0860
vn 0.8392 0.5372 -0.0847
vn -0.1341 0.9793 -0.1515
vn 0.8565 -0.5034 0.1143
vn 0.8176 -0.5728 0.0593
vn 0.8961 -0.4338 0.0936
vn 0.9970 -0.0770 0.0033
vn 0.9623 -0.2684 0.0450
vn 0.1241 -0.9552 0.2689
vn -0.9711 0.2358 -0.0371
vn -0.9564 0.2909 -0.0261
vn -0.8781 0.4692 -0.0936
vn -0.2937 0.9526 0.0798
vn 0.9803 -0.0637 0.1871
vn -0.6667 -0.6927 0.2752
vn -0.8649 -0.4230 0.2703
vn -0.9855 0.1553 0.0688
vn -0.9958 0.0523 0.0752
vn -0.0000 0.1709 0.9853
vn 0.0002 0.1709 0.9853
vn -0.9886 0.1296 0.0773
vn -0.0007 0.1722 0.9851
vn 0.0001 0.1709 0.9853
vn 0.0002 0.1708 0.9853
vn 0.0004 0.1707 0.9853
vn -0.0000 0.1708 0.9853
vn 0.0013 0.1727 0.9850
vn -0.0003 0.1712 0.9852
vn -0.0003 0.1708 0.9853
vn -0.0003 0.1701 0.9854
vn 0.1436 0.9866 -0.0777
vn -0.0000 0.1710 0.9853
vn 0.0003 0.1725 0.9850
vn -0.0018 0.1758 0.9844
vn -0.0014 0.1727 0.9850
vn -0.0009 0.1724 0.9850
vn -0.0070 0.1639 0.9865
vn -0.0032 0.1701 0.9854
vn -0.0007 0.1708 0.9853
vn -0.0001 0.1718 0.9851
vn -0.0006 0.1712 0.9852
vn -0.0000 0.1715 0.9852
vn -0.0025 0.1716 0.9852
vn -0.0022 0.1712 0.9852
vn 0.0007 0.1707 0.9853
vn 0.0008 0.1715 0.9852
vn 0.0024 0.1697 0.9855
vn 0.0092 0.1714 0.9852
vn 0.0035 0.1727 0.9850
vn 0.0001 0.1690 0.9856
vn 0.0083 0.1825 0.9832
vn -0.0004 0.1722 0.9851
vn 0.5855 -0.8005 0.1281
vn 0.6391 -0.7642 0.0864
vn -0.6653 0.7312 -0.1511
vn -0.6357 0.7567 -0.1522
vn -0.8271 0.5533 -0.0991
vn -0.0601 -0.9814 0.1823
vn -0.1022 -0.9784 0.1795
vn -0.5076 0.8476 -0.1543
vn 0.5447 0.8264 -0.1431
vn 0.6188 0.7667 -0.1712
vn -0.4231 -0.8928 0.1542
vn -0.4597 -0.8752 0.1510
vn 0.9436 0.3266 -0.0538
vn 0.9565 0.2871 -0.0518
vn 0.9986 0.0530 -0.0032
vn -0.9211 -0.3852 0.0568
vn -0.8686 -0.4891 0.0793
vn -0.0000 0.1666 0.9860
vn -0.0010 0.1711 0.9853
vn -0.9920 -0.0992 -0.0774
vn -0.5797 -0.7852 0.2178
vn -0.5987 -0.7895 0.1353
vn -0.7015 -0.5990 0.3862
vn 0.3356 -0.8870 0.3171
vt 0.779097 0.159200
vt 0.748347 0.303150
vt 0.665140 0.021694
vt 0.409197 0.661403
vt 0.384694 0.632097
vt 0.395795 0.622885
vt 0.063447 0.901848
vt 0.104427 0.936250
vt 0.075098 0.941002
vt 0.919248 0.733785
vt 0.957530 0.741874
vt 0.919286 0.762526
vt 0.128476 0.035807
vt 0.202937 0.161655
vt 0.057815 0.066498
vt 0.113717 0.192546
vt 0.179500 0.269168
vt 0.048285 0.239004
vt 0.162757 0.800886
vt 0.200908 0.798965
vt 0.200903 0.853655
vt 0.162747 0.860289
vt 0.133786 0.173406
vt 0.128731 0.189995
vt 0.124749 0.184325
vt 0.183738 0.280184
vt 0.182395 0.267924
vt 0.409197 0.622829
vt 0.125242 0.162988
vt 0.184382 0.262128
vt 0.484845 0.355813
vt 0.611230 0.385701
vt 0.553886 0.384411
vt 0.424972 0.290012
vt 0.441446 0.313563
vt 0.714797 0.341835
vt 0.664545 0.373512
vt 0.743489 0.311474
vt 0.758118 0.287580
vt 0.779097 0.233930
vt 0.757832 0.103733
vt 0.726681 0.061136
vt 0.671452 0.023784
vt 0.426235 0.101859
vt 0.403405 0.233930
vt 0.403405 0.159201
vt 0.441738 0.078190
vt 0.484845 0.037317
vt 0.553886 0.008719
vt 0.625264 0.008379
vt 0.063700 0.940887
vt 0.834112 0.252891
vt 0.795941 0.222073
vt 0.834176 0.200118
vt 0.919201 0.822612
vt 0.957530 0.853232
vt 0.919256 0.897342
vt 0.983595 0.680788
vt 0.945438 0.670123
vt 0.983689 0.652494
vt 0.957480 0.780304
vt 0.945374 0.411452
vt 0.983546 0.404943
vt 0.983689 0.446982
vt 0.983542 0.518361
vt 0.945309 0.487617
vt 0.348250 0.910344
vt 0.388052 0.911826
vt 0.384107 0.924090
vt 0.046690 0.991621
vt 0.008502 0.962768
vt 0.046690 0.934263
vt 0.409197 0.566857
vt 0.390093 0.603085
vt 0.378603 0.592031
vt 0.409197 0.606071
vt 0.102625 0.907600
vt 0.408244 0.678160
vt 0.389419 0.713699
vt 0.384694 0.709406
vt 0.386431 0.872152
vt 0.388052 0.881757
vt 0.349335 0.882391
vt 0.387519 0.896030
vt 0.349387 0.900772
vt 0.373956 0.122965
vt 0.386648 0.174515
vt 0.008379 0.987130
vt 0.341723 0.072404
vt 0.323270 0.066664
vt 0.300511 0.036026
vt 0.328430 0.062827
vt 0.231785 0.008753
vt 0.134824 0.017303
vt 0.171578 0.008379
vt 0.024650 0.117098
vt 0.116333 0.024986
vt 0.408244 0.717184
vt 0.144592 0.382533
vt 0.078726 0.350128
vt 0.037456 0.306473
vt 0.015718 0.269887
vt 0.028154 0.266182
vt 0.020866 0.247829
vt 0.010969 0.243427
vt 0.008379 0.167046
vt 0.366344 0.247116
vt 0.386648 0.218485
vt 0.378593 0.241565
vt 0.380686 0.248995
vt 0.356312 0.303347
vt 0.320323 0.342218
vt 0.296223 0.359152
vt 0.287681 0.353670
vt 0.283548 0.364931
vt 0.272731 0.364208
vt 0.270809 0.373215
vt 0.216675 0.388185
vt 0.795878 0.274846
vt 0.834199 0.319564
vt 0.795854 0.312230
vt 0.008440 0.866193
vt 0.046590 0.859533
vt 0.008497 0.918966
vt 0.796038 0.147343
vt 0.834193 0.140714
vt 0.008408 0.806790
vt 0.046640 0.798965
vt 0.957451 0.912635
vt 0.957529 0.950019
vt 0.919371 0.959061
vt 0.796000 0.072613
vt 0.834158 0.065985
vt 0.945450 0.599793
vt 0.983591 0.593091
vt 0.945351 0.540390
vt 0.162754 0.913062
vt 0.200895 0.913058
vt 0.200908 0.954831
vt 0.162759 0.950446
vt 0.796020 0.013210
vt 0.834199 0.008379
vt 0.104427 0.896957
vt 0.065728 0.895602
s 1
usemtl Target
f 10/1/1 57/2/2 49/3/3
f 43/4/4 34/5/4 42/6/4
f 7/7/5 46/8/5 48/9/5
f 52/10/6 51/11/7 17/12/8
f 39/13/9 58/14/10 22/15/11
f 61/16/12 65/17/13 46/18/14
f 34/19/15 43/20/15 14/21/16 33/22/17
f 59/23/18 60/24/18 63/25/18
f 60/24/19 61/16/19 63/25/19
f 64/26/20 65/17/20 67/27/20
f 44/28/21 43/4/21 42/6/21
f 61/16/22 62/29/22 63/25/22
f 63/25/23 62/29/23 59/23/23
f 66/30/24 64/26/24 67/27/24
f 16/31/25 43/32/1 15/33/26
f 43/32/1 16/31/25 17/34/27
f 17/34/27 16/31/25 52/35/28
f 13/36/29 14/37/30 57/2/2
f 57/2/2 12/38/31 13/36/29
f 56/39/32 57/2/2 11/40/29
f 57/2/2 14/37/30 43/32/1
f 10/1/1 11/40/29 57/2/2
f 9/41/1 10/1/1 49/3/3
f 8/42/33 9/41/1 49/3/3
f 49/3/3 7/43/34 8/42/33
f 43/32/1 17/34/27 40/44/29
f 40/44/29 17/34/27 1/45/35
f 1/45/35 2/46/36 40/44/29
f 40/44/29 3/47/37 4/48/29
f 4/48/29 5/49/1 40/44/29
f 5/49/1 6/50/1 49/3/3
f 5/49/1 49/3/3 40/44/29
f 7/7/38 48/9/38 25/51/38
f 8/52/39 27/53/40 9/54/41
f 1/55/42 18/56/43 2/57/44
f 40/58/45 21/59/46 3/60/47
f 17/12/8 38/61/48 1/55/42
f 45/62/49 49/63/50 6/64/51
f 5/65/52 24/66/53 6/64/51
f 12/67/54 55/68/54 31/69/54
f 43/70/55 41/71/56 15/72/57
f 17/12/8 51/11/7 38/61/48
f 40/73/58 39/74/58 21/75/58
f 20/76/59 39/74/59 40/73/59
f 7/7/60 47/77/60 46/8/60
f 52/78/61 50/79/61 51/80/61
f 30/81/62 54/82/62 56/83/62
f 53/84/63 55/68/63 57/85/63
f 36/86/64 35/87/65 58/14/10
f 41/71/56 43/70/55 44/88/66
f 37/89/67 36/86/64 50/90/68
f 50/90/68 36/86/64 58/14/10
f 38/91/69 51/92/70 50/90/68
f 18/93/71 38/91/69 58/14/10
f 20/94/72 19/95/73 39/13/9
f 19/95/73 18/93/71 58/14/10
f 58/14/10 23/96/74 22/15/11
f 22/15/11 21/97/75 39/13/9
f 52/78/76 37/98/76 50/79/76
f 28/99/77 27/100/78 64/26/79
f 27/100/78 26/101/67 46/18/14
f 26/101/67 25/102/80 48/103/81
f 26/101/67 48/103/81 46/18/14
f 46/18/14 47/104/82 45/105/83
f 45/105/83 24/106/84 46/18/14
f 46/18/14 24/106/84 61/16/12
f 23/96/74 58/14/10 62/29/85
f 42/107/86 41/108/87 44/109/88
f 42/107/86 34/110/89 33/111/68
f 33/111/68 32/112/90 58/14/10
f 42/107/86 33/111/68 58/14/10
f 32/112/90 31/113/91 55/114/92
f 55/114/92 53/115/93 54/116/94
f 58/14/10 41/108/87 42/107/86
f 64/26/79 66/30/95 54/116/94
f 54/116/94 66/30/95 55/114/92
f 30/117/96 29/118/97 54/116/94
f 54/116/94 29/118/97 64/26/79
f 6/64/51 24/66/53 45/62/49
f 26/119/98 8/52/39 7/120/99 25/121/99
f 36/122/100 16/123/101 15/72/57 35/124/102
f 15/72/57 41/71/56 35/124/102
f 8/52/39 26/119/98 27/53/40
f 28/125/103 10/126/104 9/54/41 27/53/40
f 37/127/105 52/128/105 16/123/101 36/122/100
f 2/57/44 18/56/43 19/129/106
f 20/130/107 40/131/107 2/57/44 19/129/106
f 29/132/108 11/133/109 10/126/104 28/125/103
f 22/134/110 4/135/111 3/60/47 21/59/46
f 23/136/112 5/65/52 4/135/111 22/134/110
f 1/55/42 38/61/48 18/56/43
f 32/137/113 13/138/113 12/139/114 31/140/114
f 62/29/85 61/16/12 24/106/84 23/96/74
f 5/65/52 23/136/112 24/66/53
f 58/14/10 38/91/69 50/90/68
f 39/13/9 19/95/73 58/14/10
f 27/100/78 46/18/14 65/17/13 64/26/79
f 33/22/17 14/21/16 13/138/113 32/137/113
f 61/16/12 60/24/115 66/30/95 65/17/13
f 60/24/115 59/23/116 58/14/10 66/30/95
f 67/27/117 65/17/117 66/30/117
f 58/14/10 59/23/116 62/29/85
f 43/32/1 40/44/29 49/3/3 57/2/2
f 29/118/97 28/99/77 64/26/79
f 55/114/92 66/30/95 58/14/10 32/112/90
f 56/83/118 54/82/118 53/84/118 57/85/118
f 35/87/65 41/108/87 58/14/10
f 30/141/119 56/142/119 11/133/109 29/132/108
f 12/67/120 57/85/120 55/68/120
f 45/143/121 47/77/121 7/7/121 49/144/121
